<svg width="109" height="57" viewBox="0 0 109 57" fill="none" xmlns="http://www.w3.org/2000/svg">
<path d="M19.932 31.3425C19.1852 30.5896 18.3221 29.9071 17.3548 29.3073C16.015 28.477 14.3009 28.0548 12.2603 28.0548C10.659 28.0548 9.10381 28.3679 7.6375 28.9853C6.16605 29.6045 4.85184 30.5386 3.73074 31.7611C2.61476 32.9784 1.70387 34.4859 1.0254 36.2432C0.345217 38.0005 0 40.0463 0 42.3208V42.4211C0 44.6973 0.345217 46.7413 1.02369 48.4986C1.70216 50.2577 2.6216 51.767 3.75466 52.9825C4.88943 54.2033 6.2122 55.1356 7.68364 55.7565C9.14996 56.374 10.6898 56.6871 12.2586 56.6871C14.2684 56.6871 15.9671 56.2561 17.3087 55.4082C18.2828 54.7908 19.1612 54.0397 19.9303 53.1654V56.1875H28.1557V18.8707H19.9303V31.3425H19.932ZM19.5475 39.4377C19.8671 40.3049 20.0294 41.2742 20.0294 42.3226V42.4228C20.0294 43.4712 19.8671 44.4405 19.5475 45.3077C19.2279 46.1731 18.7989 46.9225 18.2709 47.5329C17.7479 48.1363 17.1275 48.6077 16.4269 48.9314C15.7262 49.255 14.9622 49.4204 14.1539 49.4204C13.3455 49.4204 12.5799 49.2568 11.8792 48.9314C11.1751 48.6059 10.5462 48.1327 10.0062 47.5276C9.46441 46.919 9.02691 46.1714 8.70904 45.3077C8.38945 44.4405 8.2271 43.4712 8.2271 42.4228V42.3226C8.2271 41.2443 8.38945 40.2662 8.70733 39.4148C9.0252 38.567 9.4627 37.8264 10.0062 37.216C10.5462 36.6091 11.1751 36.1377 11.8792 35.8123C12.5799 35.4868 13.3455 35.3232 14.1522 35.3232C14.9588 35.3232 15.7245 35.4886 16.4251 35.8123C17.1275 36.1377 17.7479 36.6074 18.2692 37.2107C18.7989 37.8229 19.2279 38.5705 19.5475 39.4359V39.4377Z" fill="#323232"/>
<path d="M47.3707 28.0567C46.3949 28.0567 45.5045 28.1816 44.7235 28.4279C43.9442 28.6742 43.2247 29.0119 42.5821 29.4323C41.9429 29.851 41.355 30.3365 40.8355 30.8748C40.6116 31.107 40.3946 31.3462 40.1844 31.5907V28.5546H31.959V56.1894H40.1844V40.861C40.1844 39.1916 40.5621 37.9268 41.3072 37.1018C42.054 36.2751 43.0555 35.8723 44.3646 35.8723C45.6737 35.8723 46.6427 36.2716 47.3416 37.0913C48.044 37.9163 48.3995 39.1846 48.3995 40.8592V56.1877H56.6249V38.4264C56.6249 35.2355 55.8131 32.6848 54.2118 30.8449C52.5985 28.9926 50.2965 28.0532 47.3707 28.0532V28.0567Z" fill="#323232"/>
<path d="M79.2479 46.3525L78.9437 46.6427C78.0687 47.4801 77.1749 48.1555 76.2897 48.6498C75.4369 49.1283 74.42 49.3693 73.2682 49.3693C72.3316 49.3693 71.4771 49.1899 70.7303 48.8345C69.9801 48.4792 69.3255 47.9867 68.7838 47.3675C68.242 46.7483 67.8216 46.0095 67.5362 45.1686C67.2474 44.3225 67.1004 43.3973 67.1004 42.4192V42.319C67.1004 41.3744 67.2474 40.4755 67.5362 39.647C67.8233 38.822 68.2369 38.0884 68.765 37.4675C69.2896 36.85 69.9134 36.3557 70.6192 36.0004C71.3165 35.6486 72.1112 35.4709 72.9776 35.4709C74.2184 35.4709 75.2643 35.719 76.0846 36.2097C76.9357 36.7199 77.7765 37.4165 78.5865 38.2819L78.8993 38.6161L83.9836 32.9889L83.7204 32.6899C82.4591 31.2562 80.9791 30.1128 79.3197 29.2931C77.6517 28.4699 75.5343 28.0512 73.0238 28.0512C70.9713 28.0512 69.064 28.4329 67.3516 29.184C65.6409 29.9369 64.1507 30.9765 62.9219 32.2765C61.6931 33.5764 60.7156 35.1174 60.02 36.8588C59.3228 38.6021 58.969 40.472 58.969 42.4175V42.5177C58.969 44.465 59.3228 46.3261 60.02 48.0535C60.7173 49.7792 61.6931 51.3043 62.9236 52.5866C64.1541 53.8707 65.6443 54.9015 67.3516 55.6527C69.0623 56.4055 70.9388 56.7873 72.9264 56.7873C75.5719 56.7873 77.7628 56.307 79.4376 55.3607C81.0885 54.4266 82.5788 53.2111 83.8639 51.7511L84.1357 51.4432L79.2445 46.3507L79.2479 46.3525Z" fill="#323232"/>
<path d="M91.006 0.791016H73.0137V19.3104H91.006V0.791016Z" fill="#00ABFF"/>
<path d="M91.0061 0.791016H100.515C105.198 0.791016 109 4.70493 109 9.52476V19.3122H91.0078V0.791016H91.0061Z" fill="#0C70F2"/>
<path d="M108.998 19.3105H91.0061V37.8299H108.998V19.3105Z" fill="#00D7EE"/>
</svg>
