<svg width="24" height="25" viewBox="0 0 24 25" fill="none" xmlns="http://www.w3.org/2000/svg">
<path d="M13.4526 0C7.78643 0 3.19259 4.7276 3.19259 10.5597C3.19259 12.6319 3.77231 14.565 4.77425 16.1959C4.76689 16.1992 4.75967 16.2022 4.75229 16.2056L0.288086 20.7998L4.08029 24.7031L8.70527 19.9418C8.70389 19.9351 8.70203 19.9284 8.70059 19.9217C10.1213 20.6873 11.7379 21.1203 13.4526 21.1203C19.1188 21.1203 23.7118 16.3919 23.7118 10.5598C23.7117 4.7276 19.1187 0 13.4526 0ZM13.4526 4.69106C16.6014 4.69106 19.1534 7.31863 19.1534 10.5597C19.1534 13.8008 16.6014 16.4284 13.4526 16.4284C10.3037 16.4284 7.75093 13.8008 7.75093 10.5597C7.75093 7.31863 10.3037 4.69106 13.4526 4.69106Z" fill="#B7B7B7" fill-opacity="0.7"/>
</svg>
